<?xml version="1.0" encoding="utf-8"?><!-- Uploaded to: SVG Repo, www.svgrepo.com, Generator: SVG Repo Mixer Tools -->
<svg fill="#000000" width="800px" height="800px" viewBox="0 0 24 24" id="tinder-circle" data-name="Flat Color" xmlns="http://www.w3.org/2000/svg" class="icon flat-color"><circle id="primary" cx="12" cy="12" r="10" style="fill: rgb(0, 0, 0);"></circle><path id="secondary" d="M12.92,7.47a.5.5,0,0,0-.76.49c.26,2.17-.3,3.39-1.3,4a2.93,2.93,0,0,1-1-1.49.5.5,0,0,0-.83-.2A3.75,3.75,0,0,0,8,12.92,3.82,3.82,0,0,0,12,17a3.74,3.74,0,0,0,4-4.08A6.25,6.25,0,0,0,12.92,7.47Z" style="fill: rgb(44, 169, 188);"></path></svg>